<?xml version="1.0" encoding="utf-8"?>
<!-- Generator: Adobe Illustrator 27.5.0, SVG Export Plug-In . SVG Version: 6.00 Build 0)  -->
<svg version="1.1" id="Layer_1" xmlns="http://www.w3.org/2000/svg" xmlns:xlink="http://www.w3.org/1999/xlink" x="0px" y="0px"
	 viewBox="0 0 187 58" style="enable-background:new 0 0 187 58;" xml:space="preserve">
<style type="text/css">
	.st0{fill:#FFC801;}
	.st1{fill:#F93647;}
	.st2{fill:#00D3FF;}
	.st3{fill:#00EF77;}
	.st4{fill:none;}
	.st5{fill:none;stroke:#E4E6EB;}
	.st6{enable-background:new    ;}
	.st7{fill:#2A333A;}
</style>
<g id="Group_9306" transform="translate(-476 -561)">
	<g id="_x31_52-google-play" transform="translate(491.654 572.342)">
		<g id="Group_9303" transform="translate(0)">
			<g id="Group_9301" transform="translate(18.744 12.829)">
				<path id="Path_3787" class="st0" d="M8.4,1.9c1.1,0.9,1.3,2.7,0.4,3.8C8.7,5.8,8.6,5.9,8.5,5.9L5.1,7.9L0,3.9L5.1,0L8.4,1.9z"/>
			</g>
			<path id="Path_3788" class="st1" d="M23.8,20.7L23.8,20.7l-5.1-4l0,0l0,0l0,0l0,0l0,0L0,31v0.6c0,0.8,0.2,1.6,0.8,1.9
				c0.8,0.4,2-0.4,2-0.4L23.8,20.7z"/>
			<g id="Group_9302" transform="translate(0 2.169)">
				<path id="Path_3789" class="st2" d="M18.7,14.6L0,28.8V0L18.7,14.6L18.7,14.6z"/>
			</g>
			<path id="Path_3790" class="st3" d="M0,1.9v0.3l18.7,14.6v0l0,0l0,0l0,0l5.1-3.9c0,0-16.3-9.7-21-12.6C2.4,0,1.9-0.1,1.5,0.1
				C0.7,0.3,0.1,1,0,1.9z"/>
		</g>
	</g>
	<g id="Rectangle_2441" transform="translate(476 561)">
		<path class="st4" d="M13,0h161c7.2,0,13,5.8,13,13v32c0,7.2-5.8,13-13,13H13C5.8,58,0,52.2,0,45V13C0,5.8,5.8,0,13,0z"/>
		<path class="st5" d="M13,0.5h161c6.9,0,12.5,5.6,12.5,12.5v32c0,6.9-5.6,12.5-12.5,12.5H13C6.1,57.5,0.5,51.9,0.5,45V13
			C0.5,6.1,6.1,0.5,13,0.5z"/>
	</g>
	<g class="st6">
		<path class="st7" d="M541.4,577.1h3.2v4.5c-0.5,0.2-1,0.3-1.5,0.4c-0.5,0.1-1.1,0.1-1.8,0.1c-1.4,0-2.5-0.4-3.3-1.3
			s-1.2-2-1.2-3.5c0-1,0.2-1.8,0.6-2.5c0.4-0.7,0.9-1.3,1.7-1.7s1.6-0.6,2.6-0.6c1,0,1.9,0.2,2.8,0.5l-0.4,1
			c-0.8-0.4-1.6-0.5-2.4-0.5c-1.1,0-2,0.3-2.6,1s-1,1.6-1,2.8c0,1.3,0.3,2.2,0.9,2.9c0.6,0.6,1.5,1,2.7,1c0.6,0,1.3-0.1,1.9-0.2
			v-2.9h-2.1V577.1z"/>
		<path class="st7" d="M549.5,582.1c-1,0-1.8-0.3-2.4-0.9c-0.6-0.6-0.9-1.5-0.9-2.6c0-1.1,0.3-2,0.8-2.7c0.6-0.7,1.3-1,2.2-1
			c0.9,0,1.6,0.3,2.1,0.9s0.8,1.3,0.8,2.3v0.7h-4.8c0,0.8,0.2,1.4,0.6,1.9c0.4,0.4,0.9,0.6,1.7,0.6c0.7,0,1.5-0.2,2.2-0.5v0.9
			c-0.4,0.2-0.7,0.3-1.1,0.3C550.4,582.1,550,582.1,549.5,582.1z M549.2,575.8c-0.6,0-1,0.2-1.3,0.5c-0.3,0.4-0.5,0.9-0.6,1.5h3.6
			c0-0.7-0.1-1.2-0.4-1.5S549.8,575.8,549.2,575.8z"/>
		<path class="st7" d="M556.1,581.3c0.2,0,0.4,0,0.5,0s0.3-0.1,0.4-0.1v0.8c-0.1,0.1-0.3,0.1-0.5,0.1c-0.2,0-0.4,0.1-0.6,0.1
			c-1.3,0-2-0.7-2-2.1v-4.1h-1v-0.5l1-0.4l0.4-1.5h0.6v1.6h2v0.8h-2v4.1c0,0.4,0.1,0.7,0.3,1S555.8,581.3,556.1,581.3z"/>
		<path class="st7" d="M561.8,573.2c0-0.2,0.1-0.4,0.2-0.5s0.3-0.2,0.4-0.2c0.2,0,0.3,0.1,0.4,0.2s0.2,0.3,0.2,0.5
			c0,0.2-0.1,0.4-0.2,0.5s-0.3,0.2-0.4,0.2c-0.2,0-0.3-0.1-0.4-0.2S561.8,573.4,561.8,573.2z M562.9,582h-1.1v-7h1.1V582z"/>
		<path class="st7" d="M567.4,581.3c0.2,0,0.4,0,0.5,0s0.3-0.1,0.4-0.1v0.8c-0.1,0.1-0.3,0.1-0.5,0.1c-0.2,0-0.4,0.1-0.6,0.1
			c-1.3,0-2-0.7-2-2.1v-4.1h-1v-0.5l1-0.4l0.4-1.5h0.6v1.6h2v0.8h-2v4.1c0,0.4,0.1,0.7,0.3,1S567,581.3,567.4,581.3z"/>
		<path class="st7" d="M579.1,578.5c0,1.1-0.3,2-0.9,2.7c-0.6,0.6-1.4,1-2.4,1c-0.6,0-1.2-0.1-1.7-0.4c-0.5-0.3-0.9-0.7-1.1-1.3
			c-0.3-0.5-0.4-1.2-0.4-1.9c0-1.1,0.3-2,0.8-2.7c0.6-0.6,1.4-0.9,2.4-0.9c1,0,1.7,0.3,2.3,1C578.8,576.5,579.1,577.4,579.1,578.5z
			 M573.8,578.5c0,0.9,0.2,1.6,0.5,2c0.4,0.5,0.9,0.7,1.6,0.7s1.2-0.2,1.6-0.7c0.4-0.5,0.5-1.1,0.5-2c0-0.9-0.2-1.6-0.5-2
			s-0.9-0.7-1.6-0.7c-0.7,0-1.2,0.2-1.6,0.7S573.8,577.6,573.8,578.5z"/>
		<path class="st7" d="M585.7,582v-4.5c0-0.6-0.1-1-0.4-1.3s-0.7-0.4-1.2-0.4c-0.7,0-1.3,0.2-1.6,0.6c-0.3,0.4-0.5,1-0.5,1.9v3.7
			h-1.1v-7h0.9l0.2,1h0.1c0.2-0.3,0.5-0.6,0.9-0.8s0.8-0.3,1.3-0.3c0.8,0,1.5,0.2,1.9,0.6c0.4,0.4,0.6,1,0.6,1.9v4.5H585.7z"/>
	</g>
	<g class="st6">
		<path class="st7" d="M547.3,601.4c-1.1,1.1-2.5,1.7-4,1.7c-0.9,0-1.8-0.2-2.6-0.6s-1.5-0.9-2.1-1.5s-1.1-1.4-1.4-2.3
			c-0.4-0.9-0.5-1.8-0.5-2.9c0-1,0.2-1.9,0.5-2.8c0.4-0.9,0.8-1.6,1.5-2.3c0.6-0.6,1.4-1.2,2.2-1.5c0.8-0.4,1.8-0.6,2.7-0.6
			c1.3,0,2.5,0.3,3.4,0.8c1,0.6,1.7,1.3,2.1,2.3l-2.1,1.5c-0.4-0.7-0.9-1.2-1.5-1.6c-0.6-0.4-1.3-0.6-2.1-0.6
			c-0.6,0-1.1,0.1-1.6,0.4c-0.5,0.3-0.9,0.6-1.3,1c-0.4,0.4-0.6,0.9-0.8,1.5s-0.3,1.2-0.3,1.8c0,0.7,0.1,1.3,0.3,1.9
			c0.2,0.6,0.5,1.1,0.9,1.5c0.4,0.4,0.8,0.8,1.3,1c0.5,0.2,1.1,0.4,1.7,0.4c1.4,0,2.6-0.6,3.7-1.9v-1h-2.9v-2h5.1v7.3h-2.3V601.4z"
			/>
		<path class="st7" d="M556.6,603.2c-0.9,0-1.6-0.1-2.3-0.4c-0.7-0.3-1.3-0.7-1.7-1.2s-0.8-1.1-1.1-1.7s-0.4-1.3-0.4-2.1
			c0-0.7,0.1-1.4,0.4-2.1s0.6-1.2,1.1-1.7s1.1-0.9,1.7-1.2c0.7-0.3,1.4-0.4,2.3-0.4c0.9,0,1.6,0.1,2.3,0.4c0.7,0.3,1.2,0.7,1.7,1.2
			s0.8,1.1,1.1,1.7c0.3,0.7,0.4,1.3,0.4,2.1c0,0.7-0.1,1.4-0.4,2.1c-0.3,0.7-0.6,1.2-1.1,1.7c-0.5,0.5-1,0.9-1.7,1.2
			C558.2,603.1,557.4,603.2,556.6,603.2z M553.8,597.8c0,0.5,0.1,0.9,0.2,1.3c0.1,0.4,0.3,0.7,0.6,1s0.5,0.5,0.9,0.7
			c0.3,0.2,0.7,0.2,1.1,0.2s0.7-0.1,1.1-0.2c0.3-0.2,0.6-0.4,0.9-0.7s0.4-0.6,0.6-1c0.1-0.4,0.2-0.8,0.2-1.3c0-0.5-0.1-0.9-0.2-1.3
			c-0.1-0.4-0.3-0.7-0.6-1s-0.5-0.5-0.9-0.7c-0.3-0.2-0.7-0.2-1.1-0.2s-0.7,0.1-1.1,0.2c-0.3,0.2-0.6,0.4-0.9,0.7
			c-0.2,0.3-0.4,0.6-0.6,1C553.9,596.9,553.8,597.3,553.8,597.8z"/>
		<path class="st7" d="M568.7,603.2c-0.9,0-1.6-0.1-2.3-0.4c-0.7-0.3-1.3-0.7-1.7-1.2s-0.8-1.1-1.1-1.7s-0.4-1.3-0.4-2.1
			c0-0.7,0.1-1.4,0.4-2.1s0.6-1.2,1.1-1.7s1.1-0.9,1.7-1.2c0.7-0.3,1.4-0.4,2.3-0.4c0.9,0,1.6,0.1,2.3,0.4s1.2,0.7,1.7,1.2
			s0.8,1.1,1.1,1.7c0.3,0.7,0.4,1.3,0.4,2.1c0,0.7-0.1,1.4-0.4,2.1c-0.3,0.7-0.6,1.2-1.1,1.7s-1,0.9-1.7,1.2
			C570.3,603.1,569.5,603.2,568.7,603.2z M565.9,597.8c0,0.5,0.1,0.9,0.2,1.3c0.1,0.4,0.3,0.7,0.6,1s0.5,0.5,0.9,0.7
			c0.3,0.2,0.7,0.2,1.1,0.2s0.7-0.1,1.1-0.2c0.3-0.2,0.6-0.4,0.9-0.7c0.2-0.3,0.4-0.6,0.6-1c0.1-0.4,0.2-0.8,0.2-1.3
			c0-0.5-0.1-0.9-0.2-1.3c-0.1-0.4-0.3-0.7-0.6-1c-0.2-0.3-0.5-0.5-0.9-0.7c-0.3-0.2-0.7-0.2-1.1-0.2s-0.7,0.1-1.1,0.2
			c-0.3,0.2-0.6,0.4-0.9,0.7c-0.2,0.3-0.4,0.6-0.6,1C566,596.9,565.9,597.3,565.9,597.8z"/>
		<path class="st7" d="M580.1,603.1c-0.7,0-1.3-0.1-1.9-0.4c-0.6-0.3-1.1-0.7-1.5-1.1s-0.7-1-1-1.7c-0.2-0.6-0.3-1.3-0.3-2
			c0-0.8,0.1-1.5,0.4-2.1c0.2-0.7,0.6-1.2,1-1.7s0.9-0.9,1.5-1.2c0.6-0.3,1.3-0.4,2-0.4c0.8,0,1.5,0.2,2.1,0.5
			c0.6,0.4,1.1,0.9,1.5,1.5v-1.8h2.3v10c0,0.8-0.1,1.5-0.4,2.1s-0.7,1.1-1.2,1.6c-0.5,0.4-1.1,0.8-1.8,1c-0.7,0.2-1.5,0.3-2.3,0.3
			c-1.1,0-2.1-0.2-2.9-0.6c-0.8-0.4-1.5-0.9-2-1.6l1.5-1.4c0.4,0.5,0.9,0.9,1.5,1.2c0.6,0.3,1.2,0.4,1.9,0.4c0.4,0,0.8-0.1,1.2-0.2
			c0.4-0.1,0.7-0.3,1-0.5c0.3-0.2,0.5-0.5,0.7-0.9c0.2-0.4,0.2-0.8,0.2-1.3v-1.3c-0.3,0.6-0.8,1.1-1.5,1.4
			C581.5,602.9,580.8,603.1,580.1,603.1z M581,600.9c0.3,0,0.6,0,0.8-0.1c0.3-0.1,0.5-0.2,0.7-0.4c0.2-0.2,0.4-0.3,0.6-0.6
			c0.2-0.2,0.3-0.4,0.4-0.7v-2.5c-0.2-0.6-0.6-1.1-1.1-1.5c-0.5-0.4-1-0.6-1.6-0.6c-0.4,0-0.8,0.1-1.1,0.3c-0.3,0.2-0.6,0.4-0.9,0.7
			c-0.2,0.3-0.4,0.6-0.5,1c-0.1,0.4-0.2,0.8-0.2,1.2c0,0.4,0.1,0.8,0.2,1.2s0.4,0.7,0.6,1c0.3,0.3,0.6,0.5,0.9,0.7
			S580.5,600.9,581,600.9z"/>
		<path class="st7" d="M588.6,588.4h2.7v11.2c0,0.4,0.1,0.7,0.3,0.9c0.2,0.2,0.5,0.3,0.8,0.3c0.2,0,0.3,0,0.5-0.1
			c0.2-0.1,0.4-0.1,0.5-0.2l0.4,2c-0.4,0.2-0.8,0.3-1.3,0.4c-0.5,0.1-0.9,0.1-1.3,0.1c-0.8,0-1.5-0.2-2-0.7
			c-0.5-0.4-0.7-1.1-0.7-1.9V588.4z"/>
		<path class="st7" d="M599.8,603.2c-0.8,0-1.6-0.1-2.3-0.4c-0.7-0.3-1.3-0.7-1.7-1.2c-0.5-0.5-0.8-1.1-1.1-1.7s-0.4-1.3-0.4-2.1
			c0-0.7,0.1-1.5,0.4-2.1c0.3-0.7,0.6-1.2,1.1-1.7s1.1-0.9,1.8-1.2c0.7-0.3,1.5-0.4,2.3-0.4c0.9,0,1.6,0.1,2.3,0.4
			c0.7,0.3,1.2,0.7,1.7,1.2c0.5,0.5,0.8,1.1,1.1,1.7c0.2,0.7,0.4,1.3,0.4,2c0,0.2,0,0.3,0,0.5s0,0.3,0,0.4h-8.1
			c0,0.4,0.1,0.8,0.3,1.1c0.2,0.3,0.4,0.6,0.6,0.8c0.3,0.2,0.5,0.4,0.9,0.5c0.3,0.1,0.7,0.2,1,0.2c0.5,0,1-0.1,1.5-0.4
			c0.5-0.3,0.8-0.6,1-1l2.3,0.6c-0.4,0.8-1,1.5-1.8,2C602,602.9,601,603.2,599.8,603.2z M602.6,596.9c-0.1-0.8-0.4-1.4-0.9-1.9
			c-0.5-0.5-1.1-0.7-1.9-0.7c-0.4,0-0.7,0.1-1,0.2c-0.3,0.1-0.6,0.3-0.8,0.5s-0.4,0.5-0.6,0.8c-0.2,0.3-0.2,0.7-0.3,1.1H602.6z"/>
		<path class="st7" d="M612,603v-14.2h6c0.7,0,1.3,0.1,1.8,0.4s1,0.6,1.4,1.1c0.4,0.4,0.7,1,0.9,1.5c0.2,0.6,0.3,1.1,0.3,1.7
			c0,0.6-0.1,1.2-0.3,1.8c-0.2,0.6-0.5,1.1-0.9,1.5c-0.4,0.4-0.9,0.8-1.4,1.1s-1.1,0.4-1.8,0.4h-3.4v4.8H612z M614.8,595.8h3.2
			c0.5,0,0.9-0.2,1.3-0.6s0.5-1,0.5-1.7c0-0.4-0.1-0.7-0.2-1c-0.1-0.3-0.2-0.5-0.4-0.7c-0.2-0.2-0.4-0.4-0.6-0.5
			c-0.2-0.1-0.5-0.2-0.7-0.2h-3.1V595.8z"/>
		<path class="st7" d="M624.2,588.4h2.7v11.2c0,0.4,0.1,0.7,0.3,0.9c0.2,0.2,0.5,0.3,0.8,0.3c0.2,0,0.3,0,0.5-0.1
			c0.2-0.1,0.4-0.1,0.5-0.2l0.4,2c-0.4,0.2-0.8,0.3-1.3,0.4c-0.5,0.1-0.9,0.1-1.3,0.1c-0.8,0-1.5-0.2-1.9-0.7
			c-0.5-0.4-0.7-1.1-0.7-1.9V588.4z"/>
		<path class="st7" d="M633.4,603.2c-0.5,0-1-0.1-1.4-0.2c-0.4-0.2-0.8-0.4-1.1-0.7c-0.3-0.3-0.6-0.7-0.8-1
			c-0.2-0.4-0.3-0.8-0.3-1.3c0-0.5,0.1-1,0.3-1.4c0.2-0.4,0.5-0.8,0.9-1.1c0.4-0.3,0.9-0.5,1.4-0.7s1.1-0.2,1.8-0.2
			c0.5,0,0.9,0,1.4,0.1c0.4,0.1,0.8,0.2,1.2,0.3v-0.6c0-0.7-0.2-1.2-0.6-1.6c-0.4-0.4-1-0.6-1.8-0.6c-0.6,0-1.1,0.1-1.6,0.3
			c-0.5,0.2-1.1,0.5-1.6,0.9l-0.8-1.7c1.3-0.9,2.8-1.3,4.4-1.3c1.5,0,2.7,0.4,3.5,1.1s1.2,1.8,1.2,3.2v3.3c0,0.3,0,0.5,0.1,0.6
			c0.1,0.1,0.3,0.2,0.5,0.2v2.3c-0.5,0.1-0.8,0.1-1.2,0.1c-0.5,0-0.9-0.1-1.2-0.3s-0.4-0.5-0.5-0.9l-0.1-0.6c-0.5,0.6-1,1.1-1.7,1.4
			C634.9,603,634.2,603.2,633.4,603.2z M634.2,601.2c0.5,0,0.9-0.1,1.3-0.2s0.7-0.4,1-0.6c0.3-0.2,0.4-0.5,0.4-0.8v-1.2
			c-0.3-0.1-0.7-0.2-1-0.3c-0.4-0.1-0.7-0.1-1.1-0.1c-0.7,0-1.3,0.2-1.7,0.5c-0.4,0.3-0.7,0.7-0.7,1.2c0,0.5,0.2,0.8,0.5,1.1
			C633.2,601.1,633.7,601.2,634.2,601.2z"/>
		<path class="st7" d="M642,605c0.2,0.1,0.4,0.1,0.7,0.2c0.2,0,0.4,0,0.5,0c0.2,0,0.3,0,0.5-0.1c0.1-0.1,0.3-0.2,0.4-0.3
			s0.2-0.4,0.4-0.7c0.1-0.3,0.2-0.7,0.4-1.1l-4.1-10.5h2.8l2.8,8.2l2.5-8.2h2.5l-4.4,12.6c-0.3,0.7-0.7,1.3-1.3,1.8
			s-1.4,0.7-2.3,0.7c-0.2,0-0.4,0-0.7,0c-0.2,0-0.4-0.1-0.7-0.2V605z"/>
	</g>
</g>
</svg>
