<?xml version="1.0" encoding="utf-8"?>
<!-- Generator: Adobe Illustrator 27.5.0, SVG Export Plug-In . SVG Version: 6.00 Build 0)  -->
<svg version="1.1" id="Layer_1" xmlns="http://www.w3.org/2000/svg" xmlns:xlink="http://www.w3.org/1999/xlink" x="0px" y="0px"
	 viewBox="0 0 187 58" style="enable-background:new 0 0 187 58;" xml:space="preserve">
<style type="text/css">
	.st0{fill:#2A333A;}
	.st1{fill:none;}
	.st2{fill:none;stroke:#E4E6EB;}
	.st3{enable-background:new    ;}
</style>
<g id="Group_9305" transform="translate(-476 -481)">
	<g id="_104490_apple_icon" transform="translate(494.591 494.528)">
		<path id="Path_3785" class="st0" d="M21,16.4c0-2.4,1.3-4.6,3.3-5.9c-1.3-1.8-3.4-3-5.7-3.1c-2.4-0.2-4.7,1.4-5.9,1.4
			S9.7,7.5,7.7,7.5C5,7.6,2.6,9.1,1.3,11.4c-2.7,4.7-0.7,11.7,2,15.6c1.3,1.9,2.8,4,4.9,3.9c2-0.1,2.7-1.3,5.1-1.3s3,1.3,5.1,1.2
			c2.1,0,3.4-1.9,4.7-3.8c0.9-1.4,1.6-2.8,2.1-4.4C22.7,21.6,21,19.1,21,16.4z"/>
		<path id="Path_3786" class="st0" d="M17.1,4.9c1.2-1.4,1.7-3.1,1.6-4.9c-1.8,0.2-3.4,1-4.6,2.3c-1.2,1.3-1.8,3-1.6,4.8
			C14.3,7.1,16,6.3,17.1,4.9z"/>
	</g>
	<g id="Rectangle_2440" transform="translate(476 481)">
		<path class="st1" d="M13,0h161c7.2,0,13,5.8,13,13v32c0,7.2-5.8,13-13,13H13C5.8,58,0,52.2,0,45V13C0,5.8,5.8,0,13,0z"/>
		<path class="st2" d="M13,0.5h161c6.9,0,12.5,5.6,12.5,12.5v32c0,6.9-5.6,12.5-12.5,12.5H13C6.1,57.5,0.5,51.9,0.5,45V13
			C0.5,6.1,6.1,0.5,13,0.5z"/>
	</g>
	<g class="st3">
		<path class="st0" d="M537,493.7h3.7c1.3,0,2.2,0.5,2.9,1.4c0.6,0.8,0.9,1.9,0.9,3.2c0,1-0.2,1.9-0.6,2.7c-0.6,1.4-1.8,2.1-3.3,2.1
			H537V493.7z M540.5,501.9c0.4,0,0.8,0,1-0.1c0.5-0.2,0.9-0.5,1.2-1c0.2-0.4,0.4-0.9,0.5-1.4c0.1-0.4,0.1-0.7,0.1-1
			c0-1.2-0.2-2.1-0.7-2.7c-0.4-0.6-1.2-1-2.2-1h-2.2v7.2H540.5z"/>
		<path class="st0" d="M551.2,496.9c0.6,0.6,0.9,1.4,0.9,2.6c0,1.1-0.3,2-0.8,2.7c-0.5,0.7-1.4,1.1-2.5,1.1c-0.9,0-1.7-0.3-2.2-0.9
			s-0.8-1.5-0.8-2.5c0-1.1,0.3-2.1,0.9-2.7s1.3-1,2.3-1C549.8,496,550.6,496.3,551.2,496.9z M550.4,501.4c0.3-0.6,0.4-1.2,0.4-1.9
			c0-0.6-0.1-1.1-0.3-1.5c-0.3-0.6-0.9-0.9-1.6-0.9c-0.7,0-1.2,0.3-1.5,0.8c-0.3,0.5-0.5,1.2-0.5,1.9c0,0.7,0.2,1.3,0.5,1.8
			c0.3,0.5,0.8,0.7,1.5,0.7C549.7,502.3,550.2,502,550.4,501.4z"/>
		<path class="st0" d="M554,496.2l1.3,5.4l1.3-5.4h1.3l1.3,5.3l1.4-5.3h1.1l-2,6.8h-1.2l-1.4-5.3l-1.3,5.3h-1.2l-2-6.8H554z"/>
		<path class="st0" d="M562.8,496.2h1.1v1c0.3-0.4,0.7-0.7,1-0.9s0.8-0.3,1.2-0.3c1,0,1.6,0.3,2,1c0.2,0.4,0.3,0.9,0.3,1.6v4.4h-1.2
			v-4.3c0-0.4-0.1-0.7-0.2-1c-0.2-0.4-0.6-0.6-1.1-0.6c-0.3,0-0.5,0-0.7,0.1c-0.3,0.1-0.6,0.3-0.8,0.6c-0.2,0.2-0.3,0.5-0.4,0.7
			c-0.1,0.2-0.1,0.6-0.1,1v3.6h-1.1V496.2z"/>
		<path class="st0" d="M570.1,493.7h1.1v9.3h-1.1V493.7z"/>
		<path class="st0" d="M577.9,496.9c0.6,0.6,0.9,1.4,0.9,2.6c0,1.1-0.3,2-0.8,2.7c-0.5,0.7-1.4,1.1-2.5,1.1c-0.9,0-1.7-0.3-2.2-0.9
			s-0.8-1.5-0.8-2.5c0-1.1,0.3-2.1,0.9-2.7s1.3-1,2.3-1C576.6,496,577.3,496.3,577.9,496.9z M577.2,501.4c0.3-0.6,0.4-1.2,0.4-1.9
			c0-0.6-0.1-1.1-0.3-1.5c-0.3-0.6-0.9-0.9-1.6-0.9c-0.7,0-1.2,0.3-1.5,0.8c-0.3,0.5-0.5,1.2-0.5,1.9c0,0.7,0.2,1.3,0.5,1.8
			c0.3,0.5,0.8,0.7,1.5,0.7C576.4,502.3,576.9,502,577.2,501.4z"/>
		<path class="st0" d="M583.8,498.9c0.3,0,0.4-0.1,0.5-0.3c0.1-0.1,0.1-0.2,0.1-0.4c0-0.4-0.1-0.7-0.4-0.9c-0.3-0.2-0.7-0.3-1.2-0.3
			c-0.6,0-1,0.2-1.3,0.5c-0.1,0.2-0.2,0.4-0.3,0.8h-1.1c0-0.8,0.3-1.4,0.8-1.8c0.5-0.3,1.1-0.5,1.8-0.5c0.8,0,1.4,0.2,1.9,0.5
			c0.5,0.3,0.7,0.8,0.7,1.4v3.9c0,0.1,0,0.2,0.1,0.3c0,0.1,0.2,0.1,0.3,0.1c0.1,0,0.1,0,0.2,0c0.1,0,0.1,0,0.2,0v0.8
			c-0.2,0.1-0.3,0.1-0.4,0.1c-0.1,0-0.2,0-0.4,0c-0.4,0-0.7-0.1-0.9-0.4c-0.1-0.1-0.2-0.4-0.2-0.6c-0.2,0.3-0.6,0.6-1,0.8
			c-0.4,0.2-0.9,0.3-1.4,0.3c-0.6,0-1.1-0.2-1.5-0.6c-0.4-0.4-0.6-0.9-0.6-1.4c0-0.6,0.2-1.1,0.6-1.5c0.4-0.3,0.9-0.6,1.5-0.6
			L583.8,498.9z M581.4,502c0.2,0.2,0.5,0.3,0.9,0.3c0.4,0,0.8-0.1,1.2-0.3c0.6-0.3,1-0.8,1-1.5v-0.9c-0.1,0.1-0.3,0.2-0.5,0.2
			c-0.2,0.1-0.4,0.1-0.6,0.1l-0.7,0.1c-0.4,0.1-0.7,0.1-0.9,0.3c-0.4,0.2-0.5,0.5-0.5,1C581.1,501.5,581.2,501.8,581.4,502z"/>
		<path class="st0" d="M591.2,496.4c0.2,0.1,0.4,0.3,0.7,0.7v-3.4h1.1v9.4h-1v-0.9c-0.3,0.4-0.6,0.7-0.9,0.9
			c-0.4,0.2-0.8,0.3-1.2,0.3c-0.8,0-1.4-0.3-2-1c-0.6-0.6-0.8-1.5-0.8-2.5c0-1,0.3-1.8,0.8-2.6s1.2-1.1,2.2-1.1
			C590.4,496.1,590.8,496.2,591.2,496.4z M588.6,501.5c0.3,0.5,0.8,0.7,1.5,0.7c0.5,0,1-0.2,1.3-0.7c0.3-0.5,0.5-1.1,0.5-2
			c0-0.9-0.2-1.5-0.5-1.9c-0.3-0.4-0.8-0.6-1.3-0.6c-0.6,0-1,0.2-1.4,0.7c-0.4,0.4-0.5,1.1-0.5,1.9
			C588.1,500.4,588.3,501,588.6,501.5z"/>
		<path class="st0" d="M603.2,496.9c0.6,0.6,0.9,1.4,0.9,2.6c0,1.1-0.3,2-0.8,2.7c-0.5,0.7-1.4,1.1-2.5,1.1c-0.9,0-1.7-0.3-2.2-0.9
			s-0.8-1.5-0.8-2.5c0-1.1,0.3-2.1,0.9-2.7s1.3-1,2.3-1C601.9,496,602.6,496.3,603.2,496.9z M602.5,501.4c0.3-0.6,0.4-1.2,0.4-1.9
			c0-0.6-0.1-1.1-0.3-1.5c-0.3-0.6-0.9-0.9-1.6-0.9c-0.7,0-1.2,0.3-1.5,0.8c-0.3,0.5-0.5,1.2-0.5,1.9c0,0.7,0.2,1.3,0.5,1.8
			c0.3,0.5,0.8,0.7,1.5,0.7C601.7,502.3,602.2,502,602.5,501.4z"/>
		<path class="st0" d="M605.5,496.2h1.1v1c0.3-0.4,0.7-0.7,1-0.9s0.8-0.3,1.2-0.3c1,0,1.6,0.3,2,1c0.2,0.4,0.3,0.9,0.3,1.6v4.4h-1.2
			v-4.3c0-0.4-0.1-0.7-0.2-1c-0.2-0.4-0.6-0.6-1.1-0.6c-0.3,0-0.5,0-0.7,0.1c-0.3,0.1-0.6,0.3-0.8,0.6c-0.2,0.2-0.3,0.5-0.4,0.7
			c-0.1,0.2-0.1,0.6-0.1,1v3.6h-1.1V496.2z"/>
		<path class="st0" d="M616.6,494.3h1.2v1.9h1.1v0.9h-1.1v4.4c0,0.2,0.1,0.4,0.2,0.5c0.1,0,0.2,0.1,0.4,0.1c0.1,0,0.1,0,0.2,0
			s0.1,0,0.2,0v0.9c-0.1,0-0.3,0.1-0.4,0.1c-0.1,0-0.3,0-0.5,0c-0.5,0-0.9-0.1-1.1-0.4c-0.2-0.3-0.3-0.6-0.3-1.1v-4.5h-0.9v-0.9h0.9
			V494.3z"/>
		<path class="st0" d="M619.9,493.6h1.1v3.5c0.3-0.3,0.5-0.6,0.7-0.7c0.4-0.2,0.8-0.4,1.4-0.4c1,0,1.7,0.3,2,1
			c0.2,0.4,0.3,0.9,0.3,1.6v4.4h-1.2v-4.3c0-0.5-0.1-0.9-0.2-1.1c-0.2-0.4-0.6-0.6-1.2-0.6c-0.5,0-0.9,0.2-1.3,0.5
			c-0.4,0.3-0.6,0.9-0.6,1.8v3.6h-1.1V493.6z"/>
		<path class="st0" d="M631.4,496.4c0.4,0.2,0.8,0.5,1,0.9c0.2,0.3,0.4,0.7,0.5,1.2c0.1,0.3,0.1,0.8,0.1,1.5H628
			c0,0.7,0.2,1.2,0.5,1.7c0.3,0.4,0.8,0.6,1.4,0.6c0.6,0,1.1-0.2,1.4-0.6c0.2-0.2,0.3-0.5,0.4-0.8h1.1c0,0.2-0.1,0.5-0.3,0.8
			c-0.2,0.3-0.4,0.6-0.6,0.8c-0.3,0.3-0.8,0.6-1.3,0.7c-0.3,0.1-0.6,0.1-0.9,0.1c-0.8,0-1.6-0.3-2.1-0.9c-0.6-0.6-0.9-1.5-0.9-2.6
			c0-1.1,0.3-2,0.9-2.7s1.4-1,2.3-1C630.5,496,630.9,496.2,631.4,496.4z M631.8,499.1c0-0.5-0.2-0.9-0.3-1.2
			c-0.3-0.5-0.8-0.8-1.6-0.8c-0.5,0-1,0.2-1.3,0.6c-0.4,0.4-0.5,0.9-0.6,1.4H631.8z"/>
	</g>
	<g class="st3">
		<path class="st0" d="M546.4,519.9h-5.6l-1,3.1h-3.3l5.4-15.1h3.6l5.4,15.1h-3.4L546.4,519.9z M545.6,517.3l-1.9-5.9l-1.9,5.9
			H545.6z"/>
		<path class="st0" d="M561.9,513c0.9,1,1.4,2.4,1.4,4.2c0,2-0.4,3.5-1.3,4.5s-2,1.5-3.4,1.5c-0.9,0-1.6-0.2-2.2-0.7
			c-0.3-0.2-0.6-0.6-0.9-1.1v5.8h-2.9v-15.6h2.8v1.7c0.3-0.5,0.6-0.9,1-1.1c0.6-0.5,1.4-0.7,2.3-0.7
			C559.9,511.6,561,512.1,561.9,513z M560.2,517.4c0-0.9-0.2-1.6-0.6-2.3s-1-1-1.9-1c-1.1,0-1.8,0.5-2.2,1.5c-0.2,0.5-0.3,1.2-0.3,2
			c0,1.3,0.3,2.2,1,2.7c0.4,0.3,0.9,0.5,1.5,0.5c0.8,0,1.4-0.3,1.9-0.9C560,519.3,560.2,518.5,560.2,517.4z"/>
		<path class="st0" d="M574.7,513c0.9,1,1.4,2.4,1.4,4.2c0,2-0.4,3.5-1.3,4.5s-2,1.5-3.4,1.5c-0.9,0-1.6-0.2-2.2-0.7
			c-0.3-0.2-0.6-0.6-0.9-1.1v5.8h-2.9v-15.6h2.8v1.7c0.3-0.5,0.6-0.9,1-1.1c0.6-0.5,1.4-0.7,2.3-0.7
			C572.7,511.6,573.8,512.1,574.7,513z M573.1,517.4c0-0.9-0.2-1.6-0.6-2.3s-1-1-1.9-1c-1.1,0-1.8,0.5-2.2,1.5
			c-0.2,0.5-0.3,1.2-0.3,2c0,1.3,0.3,2.2,1,2.7c0.4,0.3,0.9,0.5,1.5,0.5c0.8,0,1.4-0.3,1.9-0.9C572.8,519.3,573.1,518.5,573.1,517.4
			z"/>
		<path class="st0" d="M589.7,520.8c0.7,0,1.4-0.1,1.8-0.2c0.9-0.3,1.3-0.9,1.3-1.8c0-0.5-0.2-0.9-0.7-1.2c-0.4-0.3-1.1-0.5-2.1-0.7
			l-1.6-0.4c-1.6-0.4-2.7-0.7-3.3-1.2c-1-0.7-1.5-1.8-1.5-3.3c0-1.4,0.5-2.5,1.5-3.4s2.4-1.3,4.3-1.3c1.6,0,3,0.4,4.1,1.3
			c1.1,0.8,1.7,2.1,1.8,3.7h-3c-0.1-0.9-0.5-1.6-1.2-1.9c-0.5-0.3-1.1-0.4-1.8-0.4c-0.8,0-1.5,0.2-1.9,0.5c-0.5,0.3-0.7,0.8-0.7,1.4
			c0,0.5,0.2,0.9,0.7,1.2c0.3,0.2,1,0.4,2,0.6l2.6,0.6c1.1,0.3,2,0.6,2.6,1.1c0.9,0.7,1.4,1.7,1.4,3.1c0,1.4-0.5,2.5-1.6,3.4
			c-1.1,0.9-2.5,1.4-4.5,1.4c-2,0-3.5-0.4-4.6-1.3c-1.1-0.9-1.7-2.1-1.7-3.7h3c0.1,0.7,0.3,1.2,0.6,1.5
			C587.6,520.5,588.5,520.8,589.7,520.8z"/>
		<path class="st0" d="M603.1,520.9v2.2l-1.4,0.1c-1.4,0-2.3-0.2-2.8-0.7c-0.3-0.3-0.5-0.9-0.5-1.5V514h-1.6v-2.1h1.6v-3.1h2.9v3.1
			h1.8v2.1h-1.8v5.9c0,0.5,0.1,0.7,0.2,0.9c0.1,0.1,0.5,0.2,1.1,0.2c0.1,0,0.2,0,0.3,0C602.9,520.9,603,520.9,603.1,520.9z"/>
		<path class="st0" d="M614.3,513.2c0.9,1.2,1.4,2.6,1.4,4.2c0,1.6-0.5,3-1.4,4.2c-0.9,1.2-2.4,1.7-4.3,1.7c-1.9,0-3.4-0.6-4.3-1.7
			c-0.9-1.2-1.4-2.6-1.4-4.2c0-1.6,0.5-3,1.4-4.2s2.4-1.8,4.3-1.8C612,511.5,613.4,512.1,614.3,513.2z M610,513.9
			c-0.9,0-1.5,0.3-2,0.9c-0.5,0.6-0.7,1.5-0.7,2.6c0,1.1,0.2,2,0.7,2.6c0.5,0.6,1.1,0.9,2,0.9s1.5-0.3,2-0.9s0.7-1.5,0.7-2.6
			c0-1.1-0.2-2-0.7-2.6C611.5,514.2,610.9,513.9,610,513.9z"/>
		<path class="st0" d="M623.5,514.5c-1.2,0-2,0.4-2.4,1.1c-0.2,0.4-0.3,1.1-0.3,2v5.3h-2.9v-11.2h2.8v1.9c0.5-0.7,0.8-1.3,1.2-1.5
			c0.5-0.5,1.3-0.7,2.1-0.7c0.1,0,0.1,0,0.1,0c0,0,0.1,0,0.3,0v3c-0.2,0-0.3,0-0.5,0S623.6,514.5,623.5,514.5z"/>
		<path class="st0" d="M635.6,519.7c-0.1,0.7-0.4,1.3-1,2c-1,1.1-2.3,1.6-4,1.6c-1.4,0-2.7-0.5-3.8-1.4s-1.6-2.4-1.6-4.5
			c0-1.9,0.5-3.4,1.5-4.5s2.3-1.5,3.8-1.5c0.9,0,1.8,0.2,2.5,0.5s1.4,0.9,1.8,1.7c0.4,0.7,0.7,1.4,0.9,2.3c0.1,0.5,0.1,1.3,0.1,2.2
			h-7.6c0,1.1,0.4,1.9,1.1,2.4c0.4,0.3,0.9,0.4,1.5,0.4c0.6,0,1.1-0.2,1.5-0.5c0.2-0.2,0.4-0.4,0.5-0.8H635.6z M632.7,516.3
			c0-0.8-0.3-1.4-0.7-1.8c-0.4-0.4-0.9-0.6-1.6-0.6c-0.7,0-1.2,0.2-1.6,0.6c-0.4,0.4-0.6,1-0.7,1.7H632.7z"/>
	</g>
</g>
</svg>
