<svg xmlns="http://www.w3.org/2000/svg" width="73.733" height="73.734" viewBox="0 0 73.733 73.734">
  <g id="Group_9307" data-name="Group 9307" transform="translate(-960.999 -234.998)">
    <path id="Path_3806" data-name="Path 3806" d="M-3606.654-13004.422l-9.932,1.84-4.463,6.229v40.92l10.7,3.424h42.542l11.646,11.3,4.027-36.42-2.312-23.434-9.957-3.863Z" transform="translate(4584.53 13242.7)" fill="#fff"/>
    <path id="_8725674_comment_info_alt_icon" data-name="8725674_comment_info_alt_icon" d="M38.866,27.806a3.687,3.687,0,0,0-3.687,3.687v11.06a3.687,3.687,0,0,0,7.373,0V31.493A3.687,3.687,0,0,0,38.866,27.806ZM64.673,2H13.06A11.06,11.06,0,0,0,2,13.06V49.926a11.06,11.06,0,0,0,11.06,11.06H55.788L69.429,74.664a3.687,3.687,0,0,0,2.618,1.069,3.1,3.1,0,0,0,1.4-.295,3.687,3.687,0,0,0,2.286-3.392V13.06A11.06,11.06,0,0,0,64.673,2Zm3.687,61.161-8.442-8.479A3.687,3.687,0,0,0,57.3,53.613H13.06a3.687,3.687,0,0,1-3.687-3.687V13.06A3.687,3.687,0,0,1,13.06,9.373H64.673a3.687,3.687,0,0,1,3.687,3.687ZM38.866,16.747a3.687,3.687,0,1,0,3.687,3.687A3.687,3.687,0,0,0,38.866,16.747Z" transform="translate(958.999 232.998)" fill="#51b6f7"/>
  </g>
</svg>
