<?xml version="1.0" encoding="utf-8"?>
<!-- Generator: Adobe Illustrator 26.0.0, SVG Export Plug-In . SVG Version: 6.00 Build 0)  -->
<svg version="1.1" id="Layer_1" xmlns="http://www.w3.org/2000/svg" xmlns:xlink="http://www.w3.org/1999/xlink" x="0px" y="0px"
	 viewBox="0 0 85 85" style="enable-background:new 0 0 85 85;" xml:space="preserve">
<style type="text/css">
	.st0{fill:none;}
	.st1{fill:#FFFFFF;}
	.st2{fill:#FBFBFB;}
</style>
<g id="Ellipse_32" transform="translate(1392 2122)">
	<g>
		<circle class="st0" cx="-1349.5" cy="-2079.5" r="42.5"/>
	</g>
	<g>
		<path class="st1" d="M-1349.5-2037c-23.4,0-42.5-19.1-42.5-42.5s19.1-42.5,42.5-42.5s42.5,19.1,42.5,42.5
			S-1326.1-2037-1349.5-2037z M-1349.5-2119c-21.8,0-39.5,17.7-39.5,39.5s17.7,39.5,39.5,39.5s39.5-17.7,39.5-39.5
			S-1327.7-2119-1349.5-2119z"/>
	</g>
</g>
<g>
	<path class="st2" d="M60.2,25.5c-0.3-0.2-0.8-0.2-1.1-0.1l-3,1.5c0-0.1,0-0.3,0-0.4c0-4.4-3.6-8-8-8s-8,3.6-8,8c0,0.2,0,0.3,0,0.5
		l-4.7-1.6c-0.3-0.1-0.6-0.1-0.9,0.1l-9,4.5c-0.4,0.2-0.6,0.6-0.6,1v27.9c0,0.4,0.2,0.7,0.5,1c0.3,0.2,0.7,0.2,1.1,0.1l8.8-3.8
		l12.4,5c0.1,0.1,0.3,0.1,0.4,0.1c0.2,0,0.3,0,0.5-0.1l11.7-5.7c0.4-0.2,0.6-0.6,0.6-1l-0.2-27.9C60.8,26.1,60.5,25.7,60.2,25.5z
		 M48.1,20.8c3.2,0,5.7,2.6,5.7,5.7c0,2.2-3.2,6.5-5.7,9.2c-2.5-2.8-5.7-7.1-5.7-9.2C42.4,23.4,44.9,20.8,48.1,20.8z M36.2,36.4
		v-8.3l4.8,1.6c1.6,3.3,4.9,7,6,8.2v20.5l-10.7-4.3v-4.5V36.4z M33.9,49.6v4.7l-6.7,2.9V31.7l6.7-3.4v8.1V49.6z M49.2,58.3V37.9
		c1.1-1.2,4.2-4.6,5.8-7.9l3.4-1.7l0.2,25.4L49.2,58.3z"/>
</g>
<circle class="st2" cx="48.1" cy="26.3" r="2.5"/>
</svg>
