<svg xmlns="http://www.w3.org/2000/svg" width="118.004" height="19.299" viewBox="0 0 118.004 19.299"><defs><style>.a{fill:#ab1e23;}</style></defs><path class="a" d="M37.782,21.2H24.1V40.5H37.782a2.652,2.652,0,0,0,2.629-2.629V23.829A2.652,2.652,0,0,0,37.782,21.2ZM27.147,24.008a1.314,1.314,0,1,1-1.314,1.314A1.326,1.326,0,0,1,27.147,24.008Zm0,5.437a1.314,1.314,0,1,1-1.314,1.314A1.326,1.326,0,0,1,27.147,29.445Zm.119,8.186a1.314,1.314,0,1,1,1.314-1.314A1.326,1.326,0,0,1,27.267,37.631Z" transform="translate(-24.1 -21.2)"/><g transform="translate(23.063 4.362)"><path class="a" d="M62.7,28.7h3.406c2.509,0,5.318,1.195,5.318,4.84,0,3.406-2.808,4.84-5.318,4.84H62.7Zm3.167,8.126c1.792,0,3.764-.717,3.764-3.346,0-2.748-1.972-3.346-3.764-3.346H64.433v6.692Z" transform="translate(-62.7 -28.58)"/><path class="a" d="M85.632,37.543H80.673a1.781,1.781,0,0,0,1.852,1.613,1.9,1.9,0,0,0,1.733-.836l1.075.9a3.2,3.2,0,0,1-2.808,1.314A3.294,3.294,0,0,1,79,37.125,3.374,3.374,0,0,1,82.465,33.6c1.852,0,3.167,1.195,3.167,3.525Zm-1.613-1.135a1.441,1.441,0,0,0-1.553-1.553,1.72,1.72,0,0,0-1.792,1.553Z" transform="translate(-69.261 -30.553)"/><path class="a" d="M95.421,35.512a1.967,1.967,0,0,0-1.434-.717c-.538,0-1.075.179-1.075.717,0,.478.478.657,1.434.836.956.239,2.091.657,2.091,1.972,0,1.613-1.314,2.211-2.748,2.211A3.648,3.648,0,0,1,91,39.455l1.075-1.016a2.091,2.091,0,0,0,1.673.836c.478,0,1.075-.179,1.075-.777,0-.538-.478-.717-1.494-.956-.956-.239-1.912-.6-1.912-1.852,0-1.434,1.314-2.091,2.629-2.091a3,3,0,0,1,2.45,1.016Z" transform="translate(-74.091 -30.553)"/><path class="a" d="M102.916,28.5a.963.963,0,1,1,0,1.912.958.958,0,1,1,0-1.912Zm-.777,3.226h1.613V38.3h-1.613Z" transform="translate(-78.478 -28.5)"/><path class="a" d="M114.391,33.779v5.975c0,2.39-1.135,3.884-3.7,3.884a5.243,5.243,0,0,1-3.226-1.075l.956-1.255a3.5,3.5,0,0,0,2.27.956c1.553,0,2.091-.956,2.091-2.27v-.478h0a2.539,2.539,0,0,1-2.151.956,3.219,3.219,0,0,1-3.226-3.406,3.236,3.236,0,0,1,3.226-3.465,2.522,2.522,0,0,1,2.27,1.195h0v-.956h1.494Zm-5.377,3.226a1.92,1.92,0,1,0,3.824,0,1.969,1.969,0,0,0-1.912-2.091A1.933,1.933,0,0,0,109.013,37.006Z" transform="translate(-80.692 -30.553)"/><path class="a" d="M122.06,33.779h1.553v1.075h0a2.262,2.262,0,0,1,2.031-1.255,2.346,2.346,0,0,1,2.39,2.629v4.123h-1.613V36.707c0-.777-.179-1.733-1.255-1.733a1.638,1.638,0,0,0-1.553,1.792v3.585H122V33.779Z" transform="translate(-86.569 -30.553)"/><path class="a" d="M141.032,37.543h-4.959a1.781,1.781,0,0,0,1.852,1.613,1.9,1.9,0,0,0,1.733-.836l1.076.9a3.2,3.2,0,0,1-2.808,1.314,3.294,3.294,0,0,1-3.525-3.406,3.374,3.374,0,0,1,3.465-3.525c1.852,0,3.167,1.195,3.167,3.525C141.032,37.245,141.032,37.424,141.032,37.543Zm-1.673-1.135a1.441,1.441,0,0,0-1.553-1.553,1.72,1.72,0,0,0-1.792,1.553Z" transform="translate(-91.56 -30.553)"/><path class="a" d="M147.8,33.779h1.553v1.075h0a2.083,2.083,0,0,1,1.912-1.255,1.017,1.017,0,0,1,.418.06v1.494a1.682,1.682,0,0,0-.478-.06,1.65,1.65,0,0,0-1.733,1.733v3.525H147.86V33.779Z" transform="translate(-96.954 -30.553)"/><path class="a" d="M161.3,28.7h3.167c2.211,0,3.645.777,3.645,2.808,0,2.151-1.733,2.868-3.764,2.868h-1.314v4H161.3V28.7Zm2.928,4.182c1.135,0,2.151-.3,2.151-1.434s-1.016-1.374-2.091-1.374h-1.255v2.748h1.195Z" transform="translate(-102.388 -28.58)"/><path class="a" d="M178.441,39.455h0a2.39,2.39,0,0,1-2.091,1.016c-1.075,0-2.45-.478-2.45-2.031,0-1.972,2.45-2.211,4.481-2.211V36.05c0-.777-.657-1.195-1.494-1.195a2.385,2.385,0,0,0-1.792.777l-.836-1.016a4.223,4.223,0,0,1,2.748-1.016c2.33,0,2.928,1.434,2.928,2.748v4h-1.553v-.9Zm0-2.151h-.359c-1.016,0-2.509.12-2.509,1.075,0,.657.6.836,1.135.836a1.557,1.557,0,0,0,1.733-1.673V37.3Z" transform="translate(-107.459 -30.553)"/><path class="a" d="M193.391,33.779v5.975c0,2.39-1.135,3.884-3.7,3.884a5.243,5.243,0,0,1-3.226-1.075l.956-1.255a3.377,3.377,0,0,0,2.27.956c1.553,0,2.091-.956,2.091-2.27v-.478h0a2.539,2.539,0,0,1-2.151.956,3.219,3.219,0,0,1-3.226-3.406,3.236,3.236,0,0,1,3.226-3.465,2.522,2.522,0,0,1,2.27,1.195h0v-.956h1.494Zm-5.377,3.226a1.92,1.92,0,1,0,3.824,0,1.969,1.969,0,0,0-1.912-2.091A1.9,1.9,0,0,0,188.013,37.006Z" transform="translate(-112.491 -30.553)"/><path class="a" d="M207.032,37.543h-4.959a1.781,1.781,0,0,0,1.852,1.613,1.9,1.9,0,0,0,1.733-.836l1.075.9a3.2,3.2,0,0,1-2.808,1.314,3.294,3.294,0,0,1-3.525-3.406,3.374,3.374,0,0,1,3.465-3.525c1.852,0,3.167,1.195,3.167,3.525C207.032,37.245,207.032,37.424,207.032,37.543Zm-1.673-1.135a1.441,1.441,0,0,0-1.553-1.553,1.72,1.72,0,0,0-1.792,1.553Z" transform="translate(-118.126 -30.553)"/><path class="a" d="M216.821,35.512a1.967,1.967,0,0,0-1.434-.717c-.538,0-1.075.179-1.075.717,0,.478.478.657,1.434.836.956.239,2.091.657,2.091,1.972,0,1.613-1.314,2.211-2.748,2.211a3.648,3.648,0,0,1-2.689-1.075l1.076-1.016a2.091,2.091,0,0,0,1.673.836c.478,0,1.076-.179,1.076-.777,0-.538-.478-.717-1.494-.956-.956-.239-1.912-.6-1.912-1.852,0-1.434,1.314-2.091,2.629-2.091a3,3,0,0,1,2.45,1.016Z" transform="translate(-122.956 -30.553)"/></g></svg>