<svg xmlns="http://www.w3.org/2000/svg" width="104.049" height="12.445" viewBox="0 0 104.049 12.445"><g transform="translate(0 0)"><path d="M55.229-125.459H51.191v-1.335h1.351l-1.034-2.769h-3l.467-1.3h2.052l-1.051-2.853.667-1.9,3.32,8.825h1.268Zm-8.058-12.178H49.89L45.6-125.459H42.667l4.5-12.178" transform="translate(-42.667 137.77)"/><path d="M158.015-125.459h-2.452l-2.552-4.9h-1.785v-1.268h2.019A2.453,2.453,0,0,0,156-134.017c0-1.385-.951-2.336-2.736-2.336h-2.035v-1.285h2.169c2.436,0,4,1.568,4,3.637a3.543,3.543,0,0,1-2.969,3.453l1.985,3.753h1.6Zm-8.174-12.178v12.178H146.9v-12.178h2.936" transform="translate(-133.392 137.77)"/><path d="M247.8-130.191l1.251.65a6.1,6.1,0,0,1-4.888,3.32v-1.384A4.494,4.494,0,0,0,247.8-130.191Zm-.517-6.573v-1.785H248.6v3.737l-1.251.017a3.764,3.764,0,0,0-3.187-2.519v-1.334A3.89,3.89,0,0,1,247.283-136.764Zm-4.5,7.624v2.919a6.026,6.026,0,0,1-5.539-6.222,6.092,6.092,0,0,1,5.539-6.223v2.886a3.3,3.3,0,0,0-2.569,3.337,3.264,3.264,0,0,0,2.569,3.3" transform="translate(-212.015 138.666)"/><path d="M348.194-132.248v-4.071h-1.384v-1.318h4.137v1.318h-1.368v9.525h1.368v1.335h-4.137v-1.335h1.384v-4.154h-4.988v-1.3Zm-6.373-5.389v12.178H338.9v-12.178h2.919" transform="translate(-300.499 137.77)"/><path d="M445.431-137.637v12.178h-2.936v-12.178h2.936" transform="translate(-390.662 137.77)"/><path d="M490.718-136.319v10.86H489.3l-5.038-8.174v-2.336l5.122,8.241v-8.591h-1.451v-1.318h4.154v1.318Zm-7.841-1.318v12.178h-2.936v-12.178h2.936" transform="translate(-423.254 137.77)"/><path d="M593.259-128.945v3.487H587.82v-1.335h4.137v-2.152Zm0-5.222h-1.3v-2.169H587.82v-1.3h5.439Zm-6.823,8.708h-2.9v-12.178h2.9v5.322h4.154V-131h-4.154v5.539" transform="translate(-513.417 137.77)"/><path d="M676.708-130.191l1.251.65a6.1,6.1,0,0,1-4.888,3.32v-1.384A4.494,4.494,0,0,0,676.708-130.191Zm-.517-6.573v-1.785h1.318v3.737l-1.251.017a3.764,3.764,0,0,0-3.187-2.519v-1.334A3.889,3.889,0,0,1,676.191-136.764Zm-4.5,7.624v2.919a6.026,6.026,0,0,1-5.539-6.222,6.092,6.092,0,0,1,5.539-6.223v2.886a3.3,3.3,0,0,0-2.569,3.337,3.263,3.263,0,0,0,2.569,3.3" transform="translate(-585.321 138.666)"/><path d="M771.347-136.352v-1.285h3.036v3.286h-1.3v-2Zm-7.524,1.4v-2.686h6.139v12.178h-2.836v-9.492h-3.3" transform="translate(-670.334 137.77)"/></g></svg>